<?xml version="1.0" encoding="UTF-8" standalone="no"?>
<!-- Created with Inkscape (http://www.inkscape.org/) -->

<svg
   width="37"
   height="21"
   viewBox="0 0 9.7895833 5.55625"
   version="1.1"
   id="svg5"
   xml:space="preserve"
   inkscape:version="1.2 (dc2aedaf03, 2022-05-15)"
   sodipodi:docname="list.svg"
   xmlns:inkscape="http://www.inkscape.org/namespaces/inkscape"
   xmlns:sodipodi="http://sodipodi.sourceforge.net/DTD/sodipodi-0.dtd"
   xmlns="http://www.w3.org/2000/svg"
   xmlns:svg="http://www.w3.org/2000/svg"><sodipodi:namedview
     id="namedview7"
     pagecolor="#ffffff"
     bordercolor="#000000"
     borderopacity="0.25"
     inkscape:showpageshadow="2"
     inkscape:pageopacity="0.0"
     inkscape:pagecheckerboard="0"
     inkscape:deskcolor="#d1d1d1"
     inkscape:document-units="mm"
     showgrid="false"
     inkscape:zoom="8.5367867"
     inkscape:cx="6.3841352"
     inkscape:cy="13.236831"
     inkscape:window-width="1920"
     inkscape:window-height="1027"
     inkscape:window-x="-8"
     inkscape:window-y="-8"
     inkscape:window-maximized="1"
     inkscape:current-layer="layer1" /><defs
     id="defs2"><inkscape:path-effect
       effect="fillet_chamfer"
       id="path-effect6085"
       is_visible="true"
       lpeversion="1"
       nodesatellites_param="F,0,0,1,0,0.396875,0,1 @ F,0,0,1,0,0.396875,0,1 @ F,0,0,1,0,0.396875,0,1 @ F,0,0,1,0,0.396875,0,1"
       unit="px"
       method="auto"
       mode="F"
       radius="1.5"
       chamfer_steps="1"
       flexible="false"
       use_knot_distance="true"
       apply_no_radius="true"
       apply_with_radius="true"
       only_selected="false"
       hide_knots="false" /><inkscape:path-effect
       effect="fillet_chamfer"
       id="path-effect6083"
       is_visible="true"
       lpeversion="1"
       nodesatellites_param="F,0,0,1,0,0.396875,0,1 @ F,0,0,1,0,0.396875,0,1 @ F,0,0,1,0,0.396875,0,1 @ F,0,0,1,0,0.396875,0,1"
       unit="px"
       method="auto"
       mode="F"
       radius="1.5"
       chamfer_steps="1"
       flexible="false"
       use_knot_distance="true"
       apply_no_radius="true"
       apply_with_radius="true"
       only_selected="false"
       hide_knots="false" /><inkscape:path-effect
       effect="fillet_chamfer"
       id="path-effect6081"
       is_visible="true"
       lpeversion="1"
       nodesatellites_param="F,0,0,1,0,0.396875,0,1 @ F,0,0,1,0,0.396875,0,1 @ F,0,0,1,0,0.396875,0,1 @ F,0,0,1,0,0.396875,0,1"
       unit="px"
       method="auto"
       mode="F"
       radius="1.5"
       chamfer_steps="1"
       flexible="false"
       use_knot_distance="true"
       apply_no_radius="true"
       apply_with_radius="true"
       only_selected="false"
       hide_knots="false" /></defs><g
     inkscape:label="Layer 1"
     inkscape:groupmode="layer"
     id="layer1"
     transform="translate(-1.3968516,-2.5217322)"><path
       style="fill:none;stroke:#000000;stroke-width:0.264583;stroke-dasharray:none;stroke-opacity:1"
       d="m 3.7781016,3.0508989 a 0.396875,0.396875 135 0 1 0.396875,-0.396875 h 6.4822914 a 0.396875,0.396875 45 0 1 0.396875,0.396875 v 0 a 0.396875,0.396875 135 0 1 -0.396875,0.396875 H 4.1749766 a 0.396875,0.396875 45 0 1 -0.396875,-0.396875 z"
       id="path6079"
       inkscape:path-effect="#path-effect6081"
       inkscape:original-d="m 3.7781016,3.4477739 v -0.79375 h 7.2760414 v 0.79375 z" /><path
       style="fill:none;stroke:#000000;stroke-width:0.264583;stroke-dasharray:none;stroke-opacity:1"
       d="m 3.7781016,5.2998572 h 0 a 0.396875,0.396875 135 0 1 0.396875,-0.396875 h 6.4822914 a 0.396875,0.396875 45 0 1 0.396875,0.396875 0.396875,0.396875 135 0 1 -0.396875,0.396875 H 4.1749766 a 0.396875,0.396875 45 0 1 -0.396875,-0.396875 z"
       id="path6077"
       inkscape:path-effect="#path-effect6083"
       inkscape:original-d="m 3.7781016,5.6967322 v -0.79375 h 7.2760414 v 0.79375 z" /><path
       style="fill:none;stroke:#000000;stroke-width:0.264583;stroke-dasharray:none;stroke-opacity:1"
       d="m 3.7781016,7.5488155 0,0 a 0.396875,0.396875 135 0 1 0.396875,-0.396875 h 6.4822914 a 0.396875,0.396875 45 0 1 0.396875,0.396875 v 0 a 0.396875,0.396875 135 0 1 -0.396875,0.396875 H 4.1749766 a 0.396875,0.396875 45 0 1 -0.396875,-0.396875 z"
       id="path6075"
       inkscape:path-effect="#path-effect6085"
       inkscape:original-d="m 3.7781016,7.9456905 v -0.79375 h 7.2760414 v 0.79375 z" /><path
       style="fill:none;stroke:#000000;stroke-width:0.264583;stroke-dasharray:none;stroke-opacity:1"
       d="m 1.9260183,3.4477739 q -0.1719792,0 -0.2844271,-0.112448 -0.1124479,-0.1124479 -0.1124479,-0.284427 0,-0.1719792 0.1124479,-0.2844271 0.1124479,-0.1124479 0.2844271,-0.1124479 0.1719792,0 0.2844271,0.1124479 0.1124479,0.1124479 0.1124479,0.2844271 0,0.1719791 -0.1124479,0.284427 -0.1124479,0.112448 -0.2844271,0.112448 z"
       id="path6073" /><path
       style="fill:none;stroke:#000000;stroke-width:0.264583;stroke-dasharray:none;stroke-opacity:1"
       d="m 1.9260183,5.6967322 q -0.1719792,0 -0.2844271,-0.1124479 -0.1124479,-0.1124479 -0.1124479,-0.2844271 0,-0.1719792 0.1124479,-0.2844271 0.1124479,-0.1124479 0.2844271,-0.1124479 0.1719792,0 0.2844271,0.1124479 0.1124479,0.1124479 0.1124479,0.2844271 0,0.1719792 -0.1124479,0.2844271 -0.1124479,0.1124479 -0.2844271,0.1124479 z"
       id="path6071" /><path
       style="fill:none;stroke:#000000;stroke-width:0.264583;stroke-dasharray:none;stroke-opacity:1"
       d="m 1.9260183,7.9456905 q -0.1719792,0 -0.2844271,-0.1124479 -0.1124479,-0.1124479 -0.1124479,-0.2844271 0,-0.1719791 0.1124479,-0.2844271 0.1124479,-0.1124479 0.2844271,-0.1124479 0.1719792,0 0.2844271,0.1124479 0.1124479,0.112448 0.1124479,0.2844271 0,0.1719792 -0.1124479,0.2844271 -0.1124479,0.1124479 -0.2844271,0.1124479 z"
       id="path6055" /></g></svg>
